<svg
  xmlns="http://www.w3.org/2000/svg"
  fill="#A54547"
  width="100%"
  height="100%"
  viewBox="0 0 16.8 12.8"
  title="Gift card">
  <path
    d="m13.9,0H2.9C1.3,0,0,1.3,0,2.9v7c0,1.6,1.3,2.9,2.9,2.9h11c1.6,0,2.9-1.3,2.9-2.9V2.9c0-1.6-1.3-2.9-2.9-2.9ZM2.9.8h5.1v2.26c0,.22.18.4.4.4s.4-.18.4-.4V.8h5.1c1.16,0,2.1.94,2.1,2.1v2.94h-5.45c.92-.52,1.87-1.21,2.12-1.95.12-.35.08-.71-.12-1.02-.27-.44-.7-.64-1.21-.57-1.05.14-2.25,1.48-2.94,3.18-.69-1.7-1.9-3.04-2.94-3.18-.5-.07-.93.13-1.21.57-.19.31-.24.66-.12,1.02.24.74,1.2,1.43,2.11,1.95H.8v-2.94C.8,1.74,1.74.8,2.9.8Zm6.3,4.83c.62-1.43,1.6-2.45,2.25-2.54.03,0,.05,0,.08,0,.15,0,.25.07.34.21.07.11.08.21.04.34-.21.65-1.55,1.45-2.71,2Zm-1.6,0c-1.16-.54-2.49-1.35-2.71-2-.04-.13-.03-.23.04-.34.09-.14.19-.21.34-.21.02,0,.05,0,.08,0,.65.09,1.63,1.11,2.25,2.54Zm6.3,6.37h-5.1v-2.59c0-.22-.18-.4-.4-.4s-.4.18-.4.4v2.59H2.9c-1.16,0-2.1-.94-2.1-2.1v-3.26h7.04c-.14.72-.66,2.45-2.46,2.37-.2,0-.41.16-.42.38s.16.41.38.42c.06,0,.11,0,.17,0,1.62,0,2.48-1.14,2.89-2.23.41,1.09,1.27,2.23,2.89,2.23.06,0,.11,0,.17,0,.22-.01.39-.2.38-.42,0-.22-.15-.38-.42-.38-1.75.08-2.3-1.65-2.45-2.37h7.04v3.26c0,1.16-.94,2.1-2.1,2.1Z"></path>
</svg>
