<svg
  xmlns="http://www.w3.org/2000/svg"
  width="100%"
  height="100%"
  viewBox="0 0 19 12"
  fill="#A54547">
  <path
    d="M21.867,0a7.261,7.261,0,0,0-7.179,7.34H29.047A7.261,7.261,0,0,0,21.867,0"
    transform="translate(-12.367 0)"></path>
  <path
    d="M18.605,51.251H.395a.4.4,0,0,1,0-.808h18.21a.4.4,0,0,1,0,.808"
    transform="translate(0 -42.295)"></path>
  <path
    d="M26.878,60.676H12.489a.4.4,0,0,1,0-.808H26.878a.4.4,0,0,1,0,.808"
    transform="translate(-10.183 -50.198)"></path>
  <path
    d="M37.445,70.1H27.939a.4.4,0,0,1,0-.808h9.506a.4.4,0,0,1,0,.808"
    transform="translate(-23.192 -58.1)"></path>
</svg>
