<svg
  xmlns="http://www.w3.org/2000/svg"
  width="100%"
  height="100%"
  viewBox="0 0 20 13"
  fill="#A54547">
  <path
    d="M13.426,0A6.588,6.588,0,0,0,10,.955,6.586,6.586,0,0,0,0,6.5a6.586,6.586,0,0,0,10,5.545A6.586,6.586,0,0,0,20,6.5,6.545,6.545,0,0,0,13.426,0M6.574,12.165A5.7,5.7,0,0,1,.845,6.5a5.738,5.738,0,0,1,8.4-5.011,6.446,6.446,0,0,0,0,10.021,5.744,5.744,0,0,1-2.668.654M12.3,6.5A5.639,5.639,0,0,1,10,11.038a5.621,5.621,0,0,1,0-9.076A5.64,5.64,0,0,1,12.3,6.5m1.122,5.665a5.745,5.745,0,0,1-2.668-.654,6.445,6.445,0,0,0,0-10.021,5.738,5.738,0,0,1,8.4,5.011,5.7,5.7,0,0,1-5.73,5.665"
    transform="translate(0 0)"></path>
</svg>
